<svg width="75" height="44" viewBox="0 0 75 44" fill="none" xmlns="http://www.w3.org/2000/svg">
<path d="M25.8409 33.9484C26.0471 34.0094 30.9473 35.1929 39.3641 33.7427C47.8766 32.276 51.9671 29.5434 52.1436 29.4164C52.769 29.019 53.0485 28.2949 52.9454 27.6367L50.5893 12.5926C50.4863 11.9344 50.0006 11.3421 49.2869 11.1754C48.5734 11.0087 47.8228 11.2346 47.4183 11.7871L43.1515 17.1572L37.3386 12.6547C36.9927 12.3281 36.4851 12.2224 36.0068 12.3048C35.5286 12.3872 35.0798 12.6577 34.7563 13.0997L30.3351 19.3655L24.9563 15.7538C24.4045 15.3661 23.6099 15.3099 22.9845 15.7073C22.3593 16.1047 22.0798 16.8288 22.1829 17.487L24.539 32.5311C24.6416 33.1894 25.1272 33.7817 25.8409 33.9484ZM26.3693 21.0145L29.7762 23.3243C30.5486 23.8672 31.6966 23.6694 32.2628 22.8959L36.6031 16.7405L42.3057 21.1655C43.093 21.8024 44.2409 21.6046 44.8072 20.8311L47.6029 17.3559L49.149 27.2286C47.5967 27.9789 44.1903 29.4349 38.8341 30.3578C33.3823 31.2971 29.6152 31.0771 27.9008 30.7931L26.3694 21.0144L26.3693 21.0145Z" fill="#D3D8E0"/>
<path d="M12.3792 27.7428C13.3307 27.5791 13.9748 26.7001 13.8285 25.7651C13.6822 24.8301 12.8186 24.3065 11.8672 24.4703L5.20693 25.6164C4.25547 25.7801 3.61118 26.6591 3.75748 27.5941C3.90378 28.5292 4.78199 29.1462 5.73361 28.9824L12.3938 27.8363L12.3792 27.7428Z" fill="#D3D8E0"/>
<path d="M5.701 16.0631L11.8753 17.8938C12.1767 17.9384 12.3826 17.9994 12.6691 17.95C13.2424 17.8512 13.8524 17.3601 14.0508 16.7469C14.3005 15.8355 13.8667 14.9453 12.9481 14.7176L6.77377 12.8869C5.85498 12.6593 4.94362 13.1059 4.69381 14.0174C4.33375 14.8514 4.87776 15.8191 5.701 16.0631Z" fill="#D3D8E0"/>
<path d="M14.6497 33.9414L9.35826 37.7482C8.55719 38.2722 8.43236 39.3551 8.93222 40.0409C9.30727 40.5552 9.93938 40.8322 10.608 40.717C10.8948 40.6675 11.0712 40.5406 11.343 40.3973L16.6344 36.5906C17.4355 36.0665 17.5605 34.9836 17.0604 34.2979C16.4503 33.5346 15.4508 33.4174 14.6497 33.9414Z" fill="#D3D8E0"/>
<path d="M68.6834 14.8892L62.0232 16.0354C61.0719 16.1991 60.4276 17.0781 60.5739 18.0131C60.7202 18.9481 61.5984 19.5651 62.5499 19.4014L69.2101 18.2553C70.1616 18.0915 70.8059 17.2125 70.6596 16.2775C70.5133 15.3425 69.6349 14.7255 68.6834 14.8892Z" fill="#D3D8E0"/>
<path d="M59.0166 10.1557C59.3033 10.1063 59.4797 9.97937 59.7516 9.836L65.0435 6.02903C65.8448 5.50493 65.9696 4.42195 65.4696 3.73615C64.955 2.95637 63.8597 2.85564 63.1542 3.36323L57.8623 7.17021C57.0611 7.69428 56.9363 8.77726 57.4362 9.46308C57.7303 10.0879 58.4431 10.2545 59.0166 10.1557Z" fill="#D3D8E0"/>
<path d="M61.4549 29.0597L67.6292 30.8904C67.9305 30.935 68.1365 30.996 68.423 30.9466C68.9963 30.8478 69.6063 30.3567 69.8047 29.7435C70.0545 28.832 69.6207 27.9418 68.7019 27.7142L62.5277 25.8835C61.6089 25.6559 60.6975 26.1024 60.4477 27.0139C60.0877 27.848 60.6317 28.8156 61.4549 29.0597Z" fill="#D3D8E0"/>
</svg>
