<svg width="38" height="41" viewBox="0 0 38 41" fill="none" xmlns="http://www.w3.org/2000/svg">
<path d="M37.4437 0.376953C36.8446 0.376953 35.7748 0.509724 34.2343 0.730921C32.651 0.952184 31.6667 1.17338 31.196 1.39464C30.7253 1.61591 29.9122 2.32384 28.714 3.56279C27.5158 4.80175 25.8041 7.05832 23.5361 10.3769C21.268 13.6955 19.1284 17.1911 17.16 20.8637C15.1915 24.5362 13.3515 28.3858 11.6397 32.3681C10.0563 29.5805 8.64418 27.6778 7.36038 26.6601C6.07659 25.6424 5.00684 25.1557 4.1082 25.1557C3.42348 25.1557 2.56766 25.5539 1.54054 26.3061C0.513493 27.0584 0 27.8105 0 28.5185C0 29.0495 0.470734 29.846 1.41214 30.8637C3.29507 32.8991 4.96396 35.1115 6.37616 37.4123C7.2748 38.784 7.83112 39.6247 8.13062 39.9344C8.43019 40.2442 9.28601 40.377 10.7838 40.377C12.8378 40.377 14.0788 40.1115 14.464 39.5362C14.8491 39.0053 15.5766 37.4567 16.6036 34.8018C19.1712 28.2531 22.3378 21.9699 26.1892 15.9965C29.955 10.023 33.464 5.50975 36.6307 2.45668C37.2726 1.88145 37.6577 1.48327 37.7861 1.30622C37.9145 1.12923 38 0.952249 38 0.775266C38 0.509658 37.786 0.376953 37.4437 0.376953Z" fill="#1FAA67"/>
</svg>
