<svg width="41" height="40" viewBox="0 0 41 40" fill="none" xmlns="http://www.w3.org/2000/svg">
<path d="M38.4225 12.9545C39.8533 14.2492 40.0702 15.4576 39.9835 16.3208C39.8968 17.0975 39.5065 17.8313 38.7693 18.3923C38.4658 18.608 38.4225 18.7807 38.4225 18.8239C39.9835 20.8954 38.9862 22.5354 38.3356 23.0965C37.9887 23.5281 36.948 24.4344 34.1295 24.5639C31.8312 24.6501 29.0559 24.2617 27.6249 24.0028C27.3215 23.9596 26.9744 23.8733 26.6275 23.7439C26.2372 23.6144 26.0206 23.6575 25.9337 23.7007L25.8469 23.7871C25.1966 24.2618 25.1966 26.0744 25.8036 28.2323C25.8469 28.4049 25.8905 28.5344 25.9771 28.707C29.0124 35.5258 26.6275 37.9426 24.9364 38.8058C24.4159 39.0647 23.8089 39.0647 23.2885 38.8058C22.7681 38.5469 22.4213 38.029 22.3344 37.468C22.2912 37.0796 22.2477 36.648 22.2043 36.1301C22.1611 35.7417 22.1176 35.3964 21.9441 35.0081C20.0362 30.0881 17.3044 24.3481 15.0495 22.4061C14.9194 22.3197 14.8327 22.2335 14.7459 22.1471L14.5725 22.0176C14.2691 21.7586 14.0521 21.4566 13.8354 21.1545C13.3583 21.6724 12.6645 21.9745 11.8841 21.9745H3.73185C2.21415 21.9745 1 20.7661 1 19.2987V3.67583C1 2.20839 2.21415 1 3.73185 1H11.8842C12.7515 1 13.532 1.38847 14.009 2.03584C19.4727 1.56102 23.5054 1.38847 26.5843 1.38847C32.9153 1.38847 34.91 2.20847 35.8205 3.02847C37.2515 4.32304 37.6852 5.92006 36.9914 7.34404C37.0347 7.38726 37.0781 7.43048 37.1214 7.47361C37.902 8.07776 38.4224 8.76827 38.7692 9.54513C39.3763 10.9263 39.0728 11.8756 38.7259 12.3937C38.5525 12.6523 38.4657 12.8682 38.4225 12.9545ZM12.7948 3.67567C12.7948 3.20084 12.4046 2.76931 11.8842 2.76931H3.73185C3.2115 2.76931 2.82126 3.15779 2.82126 3.67567V19.2985C2.82126 19.7733 3.21159 20.2049 3.73185 20.2049H11.8842C12.4046 20.2049 12.7948 19.8164 12.7948 19.2985V3.67567ZM37.1649 14.2492C36.9915 14.1197 36.7747 13.9039 36.6445 13.5155C36.4711 12.9114 36.6445 12.2209 37.2516 11.4008C37.4684 11.0988 37.2949 10.6239 37.1649 10.2355C36.948 9.76081 36.5578 9.28615 36.0374 8.85454C35.2135 8.20708 34.9967 7.34395 35.3869 6.56726C35.7338 5.87659 35.4737 5.09981 34.6063 4.32295C32.7418 2.63991 22.8549 3.07143 14.6159 3.76202V18.3491C14.6593 18.5648 14.876 19.8596 15.8301 20.7228C15.9603 20.8091 16.0469 20.8954 16.1769 20.9818L16.2204 21.0249C19.299 23.7006 22.4212 31.1669 23.6788 34.4037C23.8956 34.9216 23.9823 35.4826 24.0257 36.0437C24.0257 36.3458 24.0691 36.7774 24.1558 37.209C26.1071 36.2595 26.1506 33.4974 24.3727 29.4406C24.2858 29.1816 24.1992 28.9659 24.1126 28.7069C23.5921 26.8943 23.0283 23.7006 24.8064 22.3628C25.0665 22.147 25.9337 21.5859 27.3215 22.0607C27.5383 22.147 27.755 22.1901 27.9719 22.2333C29.0994 22.4059 31.9178 22.8807 34.0861 22.7943C36.1241 22.708 36.7745 22.1469 36.9047 22.0607L36.948 21.9744L37.1214 21.8449C37.2082 21.7585 37.902 21.1544 36.948 19.9028C36.5143 19.3418 36.2976 18.0903 37.6418 17.0544C37.8153 16.9248 38.1189 16.6228 38.1622 16.2343C38.249 15.5438 37.9019 14.8965 37.1649 14.2492Z" fill="#EE0000" stroke="#EE0000"/>
</svg>
