<svg width="70" height="31" viewBox="0 0 70 31" fill="none" xmlns="http://www.w3.org/2000/svg">
<path d="M21.6603 25.1558C21.852 25.2535 26.4532 27.3142 34.9354 27.4385C43.5141 27.5642 47.9736 25.6362 48.1676 25.5441C48.846 25.2692 49.2401 24.6106 49.2487 23.9463L49.4437 8.76186C49.4522 8.09754 49.0752 7.42758 48.4041 7.13299C47.7332 6.8384 46.9607 6.922 46.4728 7.38946L41.402 11.8714L36.4592 6.38849C36.1749 6.00464 35.6954 5.80778 35.2134 5.80072C34.7315 5.79366 34.2471 5.9764 33.8568 6.35036L28.4858 11.6821L23.82 7.15254C23.3441 6.67097 22.5755 6.46987 21.8971 6.74469C21.2188 7.01952 20.8247 7.67819 20.8162 8.3425L20.6212 23.5269C20.6122 24.1912 20.9892 24.8612 21.6603 25.1558ZM24.3286 12.5705L27.2803 15.4613C27.9463 16.1355 29.1031 16.1524 29.7862 15.498L35.0596 10.2597L39.9072 15.6463C40.5722 16.4154 41.729 16.4323 42.4122 15.7779L45.7274 12.8839L45.5994 22.8487C43.9547 23.2992 40.3772 24.1011 34.9794 24.022C29.4851 23.9415 25.8333 23.0337 24.202 22.4403L24.3287 12.5705L24.3286 12.5705Z" fill="#D3D8E0"/>
<path d="M9.26008 16.7325C10.2235 16.7466 11.004 15.9995 11.0162 15.0516C11.0284 14.1036 10.2661 13.4287 9.3027 13.4146L2.55858 13.3159C1.59513 13.3018 0.814477 14.0489 0.8023 14.9969C0.790122 15.9449 1.55114 16.7145 2.51474 16.7286L9.25886 16.8273L9.26008 16.7325Z" fill="#D3D8E0"/>
<path d="M4.80632 4.12786L10.5527 7.05929C10.8407 7.15841 11.0324 7.25613 11.3214 7.26036C11.8997 7.26884 12.5792 6.89916 12.8757 6.33405C13.272 5.48568 12.9951 4.53254 12.1327 4.14027L6.38623 1.20884C5.52365 0.816572 4.55617 1.08712 4.15967 1.93549C3.668 2.68756 4.04013 3.737 4.80632 4.12786Z" fill="#D3D8E0"/>
<path d="M10.323 23.1184L4.50345 25.8804C3.63113 26.2472 3.32857 27.2868 3.70436 28.0516C3.98635 28.6251 4.55977 29.0132 5.23429 29.0231C5.5236 29.0273 5.71758 28.9352 6.00779 28.8446L11.8273 26.0826C12.6996 25.7157 13.0023 24.6762 12.6264 23.9114C12.1555 23.0503 11.1953 22.7515 10.323 23.1184Z" fill="#D3D8E0"/>
<path d="M67.0857 14.223L60.3416 14.1243C59.3783 14.1102 58.5977 14.8573 58.5855 15.8052C58.5733 16.7532 59.3343 17.5229 60.2978 17.537L67.0419 17.6357C68.0054 17.6498 68.786 16.9027 68.7982 15.9547C68.8104 15.0067 68.0492 14.2371 67.0857 14.223Z" fill="#D3D8E0"/>
<path d="M58.509 7.91662C58.7982 7.92085 58.9921 7.82879 59.2825 7.73814L65.1021 4.97616C65.9745 4.60931 66.2771 3.56977 65.9012 2.805C65.5266 1.94535 64.47 1.64515 63.6941 2.01341L57.8745 4.77538C57.0022 5.14224 56.6997 6.18178 57.0755 6.94655C57.2597 7.6136 57.9306 7.90815 58.509 7.91662Z" fill="#D3D8E0"/>
<path d="M57.4723 26.7162L63.2188 29.6477C63.5067 29.7468 63.6984 29.8445 63.9874 29.8487C64.5657 29.8572 65.2453 29.4875 65.5417 28.9224C65.9382 28.0741 65.6613 27.1209 64.7987 26.7286L59.0522 23.7972C58.1897 23.405 57.2222 23.6755 56.8257 24.5239C56.334 25.2759 56.7061 26.3254 57.4723 26.7162Z" fill="#D3D8E0"/>
</svg>
