<svg width="80" height="81" viewBox="0 0 80 81" fill="none" xmlns="http://www.w3.org/2000/svg">
<circle cx="40" cy="40.0955" r="40" fill="#EE0000"/>
<path d="M27.9456 47.6676C28.1181 47.7537 32.2546 49.5635 39.8381 49.5635C47.5079 49.5635 51.4721 47.7537 51.6444 47.6676C52.2477 47.409 52.5924 46.8058 52.5924 46.2025V32.4141C52.5924 31.8109 52.2477 31.2076 51.6444 30.9491C51.0413 30.6906 50.3518 30.7768 49.921 31.2076L45.4398 35.3442L40.9585 30.432C40.7 30.0873 40.2691 29.915 39.8382 29.915C39.4073 29.915 38.9765 30.0873 38.6319 30.432L33.8921 35.3442L29.6694 31.2938C29.2385 30.8629 28.5491 30.6906 27.9459 30.9491C27.3428 31.2076 26.998 31.8109 26.998 32.4141V46.2025C26.9976 46.8058 27.3423 47.409 27.9456 47.6676ZM30.1862 36.2059L32.8578 38.7913C33.4609 39.3945 34.4952 39.3945 35.0983 38.7913L39.7519 33.9653L44.147 38.7913C44.7502 39.4807 45.7845 39.4807 46.3876 38.8774L49.3178 36.2059V45.2546C47.8527 45.6855 44.6642 46.4611 39.8382 46.4611C34.9261 46.4611 31.6514 45.6855 30.1863 45.1684V36.2059H30.1862Z" fill="white"/>
<path d="M16.742 40.1705C17.6037 40.1705 18.2932 39.481 18.2932 38.6193C18.2932 37.7575 17.6037 37.1542 16.742 37.1542H10.7095C9.84776 37.1542 9.1582 37.8437 9.1582 38.7054C9.1582 39.5672 9.84762 40.2566 10.7095 40.2566H16.742V40.1705Z" fill="white"/>
<path d="M12.6058 28.7949L17.7764 31.3802C18.035 31.4664 18.2075 31.5526 18.4659 31.5526C18.9829 31.5526 19.5862 31.2079 19.8447 30.6908C20.1893 29.9152 19.9307 29.0534 19.1553 28.7087L13.9846 26.1234C13.209 25.7787 12.3473 26.0372 12.0025 26.8128C11.5717 27.5022 11.9164 28.4502 12.6058 28.7949Z" fill="white"/>
<path d="M17.7775 45.9437L12.6068 48.529C11.8312 48.8737 11.5727 49.8217 11.9174 50.5111C12.1761 51.0282 12.6931 51.3729 13.2962 51.3729C13.5549 51.3729 13.7273 51.2867 13.9856 51.2005L19.1563 48.6152C19.9319 48.2705 20.1906 47.3225 19.8457 46.6331C19.4148 45.8575 18.5531 45.599 17.7775 45.9437Z" fill="white"/>
<path d="M68.4489 37.1542H62.4164C61.5548 37.1542 60.8652 37.8437 60.8652 38.7054C60.8652 39.5672 61.5547 40.2566 62.4164 40.2566H68.4489C69.3106 40.2566 70.0002 39.5672 70.0002 38.7054C70.0002 37.8437 69.3106 37.1542 68.4489 37.1542Z" fill="white"/>
<path d="M60.6925 31.5526C60.951 31.5526 61.1234 31.4664 61.3819 31.3802L66.5525 28.7949C67.3283 28.4502 67.5868 27.5022 67.242 26.8128C66.8973 26.0372 65.9493 25.7787 65.2599 26.1234L60.0892 28.7087C59.3136 29.0534 59.0551 30.0014 59.3998 30.6908C59.5722 31.294 60.1753 31.5526 60.6925 31.5526Z" fill="white"/>
<path d="M60.0042 48.6162L65.1749 51.2015C65.4334 51.2877 65.6059 51.3739 65.8643 51.3739C66.3814 51.3739 66.9846 51.0291 67.2431 50.5121C67.5879 49.7365 67.3293 48.8747 66.5537 48.53L61.3831 45.9447C60.6075 45.6 59.7457 45.8585 59.401 46.6341C58.9701 47.3235 59.3148 48.2715 60.0042 48.6162Z" fill="white"/>
</svg>
