<svg width="20" height="20" viewBox="0 0 20 20" fill="none" xmlns="http://www.w3.org/2000/svg">
<path d="M12.3867 10L19.0686 3.31806C19.3735 3.01319 19.5625 2.59075 19.5625 2.125C19.5625 1.19294 18.8071 0.4375 17.875 0.4375C17.4093 0.4375 16.9874 0.6265 16.6819 0.931937L10 7.61331L3.31806 0.931937C3.01263 0.6265 2.59075 0.4375 2.125 0.4375C1.19294 0.4375 0.4375 1.19294 0.4375 2.125C0.4375 2.59075 0.6265 3.01263 0.931937 3.31806L7.61331 10L0.931937 16.6819C0.6265 16.9874 0.4375 17.4093 0.4375 17.875C0.4375 18.8071 1.19294 19.5625 2.125 19.5625C2.59075 19.5625 3.01263 19.3735 3.31806 19.0681L10 12.3867L16.6819 19.0686C16.9874 19.3735 17.4093 19.5625 17.875 19.5625C18.8071 19.5625 19.5625 18.8071 19.5625 17.875C19.5625 17.4093 19.3735 16.9874 19.0681 16.6819L12.3867 10Z" fill="#B9BFC7"/>
</svg>
